<?xml version="1.0" encoding="UTF-8" standalone="no"?>
<!DOCTYPE svg PUBLIC "-//W3C//DTD SVG 1.1//EN"
 "http://www.w3.org/Graphics/SVG/1.1/DTD/svg11.dtd">
<!-- Generated by graphviz version 2.38.0 (20140413.2041)
 -->
<!-- Title: models_diagram Pages: 1 -->
<svg width="482pt" height="646pt"
 viewBox="0.00 0.00 481.55 646.00" xmlns="http://www.w3.org/2000/svg" xmlns:xlink="http://www.w3.org/1999/xlink">
<g id="graph0" class="graph" transform="scale(1 1) rotate(0) translate(4 642)">
<title>models_diagram</title>
<polygon fill="none" stroke="none" points="-4,4 -4,-642 477.55,-642 477.55,4 -4,4"/>
<!-- _diagram_info -->
<g id="node1" class="node"><title>_diagram_info</title>
<text text-anchor="start" x="8" y="-616.6" font-family="Times,serif" font-size="13.00">Models diagram</text>
<text text-anchor="start" x="8" y="-603.6" font-family="Times,serif" font-size="13.00">Date: Aug 01 2016 &#45; 19:33</text>
<text text-anchor="start" x="8" y="-590.6" font-family="Times,serif" font-size="13.00">Migration version: 20160801232433</text>
<text text-anchor="start" x="8" y="-577.6" font-family="Times,serif" font-size="13.00">Generated by RailRoady 1.5.1</text>
<text text-anchor="start" x="8" y="-564.6" font-family="Times,serif" font-size="13.00">http://railroady.prestonlee.com</text>
</g>
<!-- Genre -->
<g id="node2" class="node"><title>Genre</title>
<path fill="none" stroke="black" d="M237.825,-551.5C237.825,-551.5 461.55,-551.5 461.55,-551.5 467.55,-551.5 473.55,-557.5 473.55,-563.5 473.55,-563.5 473.55,-625.5 473.55,-625.5 473.55,-631.5 467.55,-637.5 461.55,-637.5 461.55,-637.5 237.825,-637.5 237.825,-637.5 231.825,-637.5 225.825,-631.5 225.825,-625.5 225.825,-625.5 225.825,-563.5 225.825,-563.5 225.825,-557.5 231.825,-551.5 237.825,-551.5"/>
<text text-anchor="middle" x="349.688" y="-622.3" font-family="Times,serif" font-size="14.00">Genre</text>
<polyline fill="none" stroke="black" points="225.825,-615.5 473.55,-615.5 "/>
<text text-anchor="start" x="233.825" y="-600.3" font-family="Times,serif" font-size="14.00">id :integer</text>
<text text-anchor="start" x="233.825" y="-586.3" font-family="Times,serif" font-size="14.00">name :character varying</text>
<text text-anchor="start" x="233.825" y="-572.3" font-family="Times,serif" font-size="14.00">created_at :timestamp without time zone</text>
<text text-anchor="start" x="233.825" y="-558.3" font-family="Times,serif" font-size="14.00">updated_at :timestamp without time zone</text>
</g>
<!-- Song -->
<g id="node3" class="node"><title>Song</title>
<path fill="none" stroke="black" d="M237.825,-400.5C237.825,-400.5 461.55,-400.5 461.55,-400.5 467.55,-400.5 473.55,-406.5 473.55,-412.5 473.55,-412.5 473.55,-502.5 473.55,-502.5 473.55,-508.5 467.55,-514.5 461.55,-514.5 461.55,-514.5 237.825,-514.5 237.825,-514.5 231.825,-514.5 225.825,-508.5 225.825,-502.5 225.825,-502.5 225.825,-412.5 225.825,-412.5 225.825,-406.5 231.825,-400.5 237.825,-400.5"/>
<text text-anchor="middle" x="349.688" y="-499.3" font-family="Times,serif" font-size="14.00">Song</text>
<polyline fill="none" stroke="black" points="225.825,-492.5 473.55,-492.5 "/>
<text text-anchor="start" x="233.825" y="-477.3" font-family="Times,serif" font-size="14.00">id :integer</text>
<text text-anchor="start" x="233.825" y="-463.3" font-family="Times,serif" font-size="14.00">name :character varying</text>
<text text-anchor="start" x="233.825" y="-449.3" font-family="Times,serif" font-size="14.00">duration :integer</text>
<text text-anchor="start" x="233.825" y="-435.3" font-family="Times,serif" font-size="14.00">genre_id :integer</text>
<text text-anchor="start" x="233.825" y="-421.3" font-family="Times,serif" font-size="14.00">created_at :timestamp without time zone</text>
<text text-anchor="start" x="233.825" y="-407.3" font-family="Times,serif" font-size="14.00">updated_at :timestamp without time zone</text>
</g>
<!-- Genre&#45;&gt;Song -->
<g id="edge1" class="edge"><title>Genre&#45;&gt;Song</title>
<path fill="none" stroke="#c8c1a1" d="M349.688,-543.113C349.688,-537.149 349.688,-530.994 349.688,-524.852"/>
<ellipse fill="none" stroke="#c8c1a1" cx="349.688" cy="-547.156" rx="4" ry="4"/>
<polygon fill="#c8c1a1" stroke="#c8c1a1" points="349.688,-524.563 354.188,-514.563 349.688,-519.563 349.688,-514.563 349.688,-514.563 349.688,-514.563 349.688,-519.563 345.188,-514.563 349.688,-524.563 349.688,-524.563"/>
</g>
<!-- User -->
<g id="node4" class="node"><title>User</title>
<path fill="none" stroke="black" d="M108.053,-137.5C108.053,-137.5 403.323,-137.5 403.323,-137.5 409.323,-137.5 415.323,-143.5 415.323,-149.5 415.323,-149.5 415.323,-351.5 415.323,-351.5 415.323,-357.5 409.323,-363.5 403.323,-363.5 403.323,-363.5 108.053,-363.5 108.053,-363.5 102.053,-363.5 96.053,-357.5 96.053,-351.5 96.053,-351.5 96.053,-149.5 96.053,-149.5 96.053,-143.5 102.053,-137.5 108.053,-137.5"/>
<text text-anchor="middle" x="255.688" y="-348.3" font-family="Times,serif" font-size="14.00">User</text>
<polyline fill="none" stroke="black" points="96.053,-341.5 415.323,-341.5 "/>
<text text-anchor="start" x="104.053" y="-326.3" font-family="Times,serif" font-size="14.00">name :character varying</text>
<text text-anchor="start" x="104.053" y="-312.3" font-family="Times,serif" font-size="14.00">email :character varying</text>
<text text-anchor="start" x="104.053" y="-298.3" font-family="Times,serif" font-size="14.00">encrypted_password :character varying</text>
<text text-anchor="start" x="104.053" y="-284.3" font-family="Times,serif" font-size="14.00">reset_password_token :character varying</text>
<text text-anchor="start" x="104.053" y="-270.3" font-family="Times,serif" font-size="14.00">reset_password_sent_at :timestamp without time zone</text>
<text text-anchor="start" x="104.053" y="-256.3" font-family="Times,serif" font-size="14.00">remember_created_at :timestamp without time zone</text>
<text text-anchor="start" x="104.053" y="-242.3" font-family="Times,serif" font-size="14.00">sign_in_count :integer</text>
<text text-anchor="start" x="104.053" y="-228.3" font-family="Times,serif" font-size="14.00">current_sign_in_at :timestamp without time zone</text>
<text text-anchor="start" x="104.053" y="-214.3" font-family="Times,serif" font-size="14.00">last_sign_in_at :timestamp without time zone</text>
<text text-anchor="start" x="104.053" y="-200.3" font-family="Times,serif" font-size="14.00">current_sign_in_ip :inet</text>
<text text-anchor="start" x="104.053" y="-186.3" font-family="Times,serif" font-size="14.00">last_sign_in_ip :inet</text>
<text text-anchor="start" x="104.053" y="-172.3" font-family="Times,serif" font-size="14.00">created_at :timestamp without time zone</text>
<text text-anchor="start" x="104.053" y="-158.3" font-family="Times,serif" font-size="14.00">updated_at :timestamp without time zone</text>
<text text-anchor="start" x="104.053" y="-144.3" font-family="Times,serif" font-size="14.00">id :integer</text>
</g>
<!-- Song&#45;&gt;User -->
<g id="edge3" class="edge"><title>Song&#45;&gt;User</title>
<path fill="none" stroke="#71faae" d="M319.711,-391.125C317.003,-385.219 314.207,-379.123 311.368,-372.931"/>
<polygon fill="#71faae" stroke="#71faae" points="319.834,-391.393 319.911,-402.359 321.918,-395.938 324.002,-400.483 324.002,-400.483 324.002,-400.483 321.918,-395.938 328.092,-398.607 319.834,-391.393 319.834,-391.393"/>
<polygon fill="#71faae" stroke="#71faae" points="311.351,-372.892 311.273,-361.927 309.267,-368.347 307.183,-363.802 307.183,-363.802 307.183,-363.802 309.267,-368.347 303.092,-365.678 311.351,-372.892 311.351,-372.892"/>
</g>
<!-- UserSong -->
<g id="node5" class="node"><title>UserSong</title>
<path fill="none" stroke="black" d="M237.825,-0.5C237.825,-0.5 461.55,-0.5 461.55,-0.5 467.55,-0.5 473.55,-6.5 473.55,-12.5 473.55,-12.5 473.55,-88.5 473.55,-88.5 473.55,-94.5 467.55,-100.5 461.55,-100.5 461.55,-100.5 237.825,-100.5 237.825,-100.5 231.825,-100.5 225.825,-94.5 225.825,-88.5 225.825,-88.5 225.825,-12.5 225.825,-12.5 225.825,-6.5 231.825,-0.5 237.825,-0.5"/>
<text text-anchor="middle" x="349.688" y="-85.3" font-family="Times,serif" font-size="14.00">UserSong</text>
<polyline fill="none" stroke="black" points="225.825,-78.5 473.55,-78.5 "/>
<text text-anchor="start" x="233.825" y="-63.3" font-family="Times,serif" font-size="14.00">id :integer</text>
<text text-anchor="start" x="233.825" y="-49.3" font-family="Times,serif" font-size="14.00">user_id :integer</text>
<text text-anchor="start" x="233.825" y="-35.3" font-family="Times,serif" font-size="14.00">song_id :integer</text>
<text text-anchor="start" x="233.825" y="-21.3" font-family="Times,serif" font-size="14.00">created_at :timestamp without time zone</text>
<text text-anchor="start" x="233.825" y="-7.3" font-family="Times,serif" font-size="14.00">updated_at :timestamp without time zone</text>
</g>
<!-- Song&#45;&gt;UserSong -->
<g id="edge2" class="edge"><title>Song&#45;&gt;UserSong</title>
<path fill="none" stroke="#52f664" d="M409.572,-393.579C415.726,-384.233 421.047,-374.271 424.688,-364 458.395,-268.908 460.232,-231.42 424.688,-137 420.998,-127.197 415.616,-117.786 409.403,-109.025"/>
<ellipse fill="none" stroke="#52f664" cx="407.226" cy="-396.979" rx="4.00002" ry="4.00002"/>
<polygon fill="#52f664" stroke="#52f664" points="409.244,-108.814 406.812,-98.1212 406.232,-104.823 403.22,-100.832 403.22,-100.832 403.22,-100.832 406.232,-104.823 399.628,-103.543 409.244,-108.814 409.244,-108.814"/>
</g>
<!-- User&#45;&gt;UserSong -->
<g id="edge4" class="edge"><title>User&#45;&gt;UserSong</title>
<path fill="none" stroke="#654517" d="M312.403,-130.037C315.644,-123.21 318.82,-116.519 321.867,-110.101"/>
<ellipse fill="none" stroke="#654517" cx="310.584" cy="-133.868" rx="4.00002" ry="4.00002"/>
<polygon fill="#654517" stroke="#654517" points="321.942,-109.944 330.296,-102.84 324.086,-105.427 326.23,-100.91 326.23,-100.91 326.23,-100.91 324.086,-105.427 322.165,-98.9802 321.942,-109.944 321.942,-109.944"/>
</g>
</g>
</svg>
